<svg id="visual" viewBox="0 0 1800 590" width="1800" height="590" xmlns="http://www.w3.org/2000/svg" xmlns:xlink="http://www.w3.org/1999/xlink" version="1.1"><path d="M0 119L17.7 117C35.3 115 70.7 111 106 118.8C141.3 126.7 176.7 146.3 212 153.3C247.3 160.3 282.7 154.7 318 150.8C353.3 147 388.7 145 423.8 145C459 145 494 147 529.2 150.8C564.3 154.7 599.7 160.3 635 170.2C670.3 180 705.7 194 741 197C776.3 200 811.7 192 847 186C882.3 180 917.7 176 953 170.2C988.3 164.3 1023.7 156.7 1059 156.7C1094.3 156.7 1129.7 164.3 1165 168.2C1200.3 172 1235.7 172 1270.8 165.2C1306 158.3 1341 144.7 1376.2 131.8C1411.3 119 1446.7 107 1482 110C1517.3 113 1552.7 131 1588 144.8C1623.3 158.7 1658.7 168.3 1694 169.2C1729.3 170 1764.7 162 1782.3 158L1800 154L1800 0L1782.3 0C1764.7 0 1729.3 0 1694 0C1658.7 0 1623.3 0 1588 0C1552.7 0 1517.3 0 1482 0C1446.7 0 1411.3 0 1376.2 0C1341 0 1306 0 1270.8 0C1235.7 0 1200.3 0 1165 0C1129.7 0 1094.3 0 1059 0C1023.7 0 988.3 0 953 0C917.7 0 882.3 0 847 0C811.7 0 776.3 0 741 0C705.7 0 670.3 0 635 0C599.7 0 564.3 0 529.2 0C494 0 459 0 423.8 0C388.7 0 353.3 0 318 0C282.7 0 247.3 0 212 0C176.7 0 141.3 0 106 0C70.7 0 35.3 0 17.7 0L0 0Z" fill="#b76ef2"></path><path d="M0 261L17.7 270.8C35.3 280.7 70.7 300.3 106 305.2C141.3 310 176.7 300 212 298C247.3 296 282.7 302 318 293.2C353.3 284.3 388.7 260.7 423.8 256.7C459 252.7 494 268.3 529.2 280.2C564.3 292 599.7 300 635 307C670.3 314 705.7 320 741 316C776.3 312 811.7 298 847 290C882.3 282 917.7 280 953 275.2C988.3 270.3 1023.7 262.7 1059 262.7C1094.3 262.7 1129.7 270.3 1165 271.3C1200.3 272.3 1235.7 266.7 1270.8 266.7C1306 266.7 1341 272.3 1376.2 269.3C1411.3 266.3 1446.7 254.7 1482 256.7C1517.3 258.7 1552.7 274.3 1588 283.2C1623.3 292 1658.7 294 1694 286.2C1729.3 278.3 1764.7 260.7 1782.3 251.8L1800 243L1800 152L1782.3 156C1764.7 160 1729.3 168 1694 167.2C1658.7 166.3 1623.3 156.7 1588 142.8C1552.7 129 1517.3 111 1482 108C1446.7 105 1411.3 117 1376.2 129.8C1341 142.7 1306 156.3 1270.8 163.2C1235.7 170 1200.3 170 1165 166.2C1129.7 162.3 1094.3 154.7 1059 154.7C1023.7 154.7 988.3 162.3 953 168.2C917.7 174 882.3 178 847 184C811.7 190 776.3 198 741 195C705.7 192 670.3 178 635 168.2C599.7 158.3 564.3 152.7 529.2 148.8C494 145 459 143 423.8 143C388.7 143 353.3 145 318 148.8C282.7 152.7 247.3 158.3 212 151.3C176.7 144.3 141.3 124.7 106 116.8C70.7 109 35.3 113 17.7 115L0 117Z" fill="#ab57ef"></path><path d="M0 290L17.7 299.8C35.3 309.7 70.7 329.3 106 334.3C141.3 339.3 176.7 329.7 212 331.7C247.3 333.7 282.7 347.3 318 343.3C353.3 339.3 388.7 317.7 423.8 312.7C459 307.7 494 319.3 529.2 330.2C564.3 341 599.7 351 635 360C670.3 369 705.7 377 741 370.2C776.3 363.3 811.7 341.7 847 330.8C882.3 320 917.7 320 953 316C988.3 312 1023.7 304 1059 305C1094.3 306 1129.7 316 1165 320C1200.3 324 1235.7 322 1270.8 322.8C1306 323.7 1341 327.3 1376.2 324.3C1411.3 321.3 1446.7 311.7 1482 313.7C1517.3 315.7 1552.7 329.3 1588 334.2C1623.3 339 1658.7 335 1694 328.2C1729.3 321.3 1764.7 311.7 1782.3 306.8L1800 302L1800 241L1782.3 249.8C1764.7 258.7 1729.3 276.3 1694 284.2C1658.7 292 1623.3 290 1588 281.2C1552.7 272.3 1517.3 256.7 1482 254.7C1446.7 252.7 1411.3 264.3 1376.2 267.3C1341 270.3 1306 264.7 1270.8 264.7C1235.7 264.7 1200.3 270.3 1165 269.3C1129.7 268.3 1094.3 260.7 1059 260.7C1023.7 260.7 988.3 268.3 953 273.2C917.7 278 882.3 280 847 288C811.7 296 776.3 310 741 314C705.7 318 670.3 312 635 305C599.7 298 564.3 290 529.2 278.2C494 266.3 459 250.7 423.8 254.7C388.7 258.7 353.3 282.3 318 291.2C282.7 300 247.3 294 212 296C176.7 298 141.3 308 106 303.2C70.7 298.3 35.3 278.7 17.7 268.8L0 259Z" fill="#9e3dec"></path><path d="M0 396L17.7 400C35.3 404 70.7 412 106 416C141.3 420 176.7 420 212 424C247.3 428 282.7 436 318 429.2C353.3 422.3 388.7 400.7 423.8 395.7C459 390.7 494 402.3 529.2 416C564.3 429.7 599.7 445.3 635 449.3C670.3 453.3 705.7 445.7 741 433C776.3 420.3 811.7 402.7 847 400.7C882.3 398.7 917.7 412.3 953 417.2C988.3 422 1023.7 418 1059 421.8C1094.3 425.7 1129.7 437.3 1165 439.3C1200.3 441.3 1235.7 433.7 1270.8 424.8C1306 416 1341 406 1376.2 401C1411.3 396 1446.7 396 1482 397C1517.3 398 1552.7 400 1588 407C1623.3 414 1658.7 426 1694 424C1729.3 422 1764.7 406 1782.3 398L1800 390L1800 300L1782.3 304.8C1764.7 309.7 1729.3 319.3 1694 326.2C1658.7 333 1623.3 337 1588 332.2C1552.7 327.3 1517.3 313.7 1482 311.7C1446.7 309.7 1411.3 319.3 1376.2 322.3C1341 325.3 1306 321.7 1270.8 320.8C1235.7 320 1200.3 322 1165 318C1129.7 314 1094.3 304 1059 303C1023.7 302 988.3 310 953 314C917.7 318 882.3 318 847 328.8C811.7 339.7 776.3 361.3 741 368.2C705.7 375 670.3 367 635 358C599.7 349 564.3 339 529.2 328.2C494 317.3 459 305.7 423.8 310.7C388.7 315.7 353.3 337.3 318 341.3C282.7 345.3 247.3 331.7 212 329.7C176.7 327.7 141.3 337.3 106 332.3C70.7 327.3 35.3 307.7 17.7 297.8L0 288Z" fill="#9119e8"></path><path d="M0 461L17.7 465C35.3 469 70.7 477 106 478C141.3 479 176.7 473 212 473C247.3 473 282.7 479 318 477C353.3 475 388.7 465 423.8 464C459 463 494 471 529.2 479C564.3 487 599.7 495 635 494C670.3 493 705.7 483 741 476C776.3 469 811.7 465 847 464C882.3 463 917.7 465 953 470C988.3 475 1023.7 483 1059 487C1094.3 491 1129.7 491 1165 489C1200.3 487 1235.7 483 1270.8 477C1306 471 1341 463 1376.2 460C1411.3 457 1446.7 459 1482 462C1517.3 465 1552.7 469 1588 476.8C1623.3 484.7 1658.7 496.3 1694 492.3C1729.3 488.3 1764.7 468.7 1782.3 458.8L1800 449L1800 388L1782.3 396C1764.7 404 1729.3 420 1694 422C1658.7 424 1623.3 412 1588 405C1552.7 398 1517.3 396 1482 395C1446.7 394 1411.3 394 1376.2 399C1341 404 1306 414 1270.8 422.8C1235.7 431.7 1200.3 439.3 1165 437.3C1129.7 435.3 1094.3 423.7 1059 419.8C1023.7 416 988.3 420 953 415.2C917.7 410.3 882.3 396.7 847 398.7C811.7 400.7 776.3 418.3 741 431C705.7 443.7 670.3 451.3 635 447.3C599.7 443.3 564.3 427.7 529.2 414C494 400.3 459 388.7 423.8 393.7C388.7 398.7 353.3 420.3 318 427.2C282.7 434 247.3 426 212 422C176.7 418 141.3 418 106 414C70.7 410 35.3 402 17.7 398L0 394Z" fill="#8417d3"></path><path d="M0 520L17.7 524C35.3 528 70.7 536 106 540C141.3 544 176.7 544 212 547C247.3 550 282.7 556 318 556C353.3 556 388.7 550 423.8 547C459 544 494 544 529.2 546C564.3 548 599.7 552 635 550C670.3 548 705.7 540 741 538C776.3 536 811.7 540 847 541C882.3 542 917.7 540 953 537C988.3 534 1023.7 530 1059 533C1094.3 536 1129.7 546 1165 550C1200.3 554 1235.7 552 1270.8 550C1306 548 1341 546 1376.2 545C1411.3 544 1446.7 544 1482 545C1517.3 546 1552.7 548 1588 551C1623.3 554 1658.7 558 1694 555C1729.3 552 1764.7 542 1782.3 537L1800 532L1800 447L1782.3 456.8C1764.7 466.7 1729.3 486.3 1694 490.3C1658.7 494.3 1623.3 482.7 1588 474.8C1552.7 467 1517.3 463 1482 460C1446.7 457 1411.3 455 1376.2 458C1341 461 1306 469 1270.8 475C1235.7 481 1200.3 485 1165 487C1129.7 489 1094.3 489 1059 485C1023.7 481 988.3 473 953 468C917.7 463 882.3 461 847 462C811.7 463 776.3 467 741 474C705.7 481 670.3 491 635 492C599.7 493 564.3 485 529.2 477C494 469 459 461 423.8 462C388.7 463 353.3 473 318 475C282.7 477 247.3 471 212 471C176.7 471 141.3 477 106 476C70.7 475 35.3 467 17.7 463L0 459Z" fill="#7715be"></path><path d="M0 591L17.7 591C35.3 591 70.7 591 106 591C141.3 591 176.7 591 212 591C247.3 591 282.7 591 318 591C353.3 591 388.7 591 423.8 591C459 591 494 591 529.2 591C564.3 591 599.7 591 635 591C670.3 591 705.7 591 741 591C776.3 591 811.7 591 847 591C882.3 591 917.7 591 953 591C988.3 591 1023.7 591 1059 591C1094.3 591 1129.7 591 1165 591C1200.3 591 1235.7 591 1270.8 591C1306 591 1341 591 1376.2 591C1411.3 591 1446.7 591 1482 591C1517.3 591 1552.7 591 1588 591C1623.3 591 1658.7 591 1694 591C1729.3 591 1764.7 591 1782.3 591L1800 591L1800 530L1782.3 535C1764.7 540 1729.3 550 1694 553C1658.7 556 1623.3 552 1588 549C1552.7 546 1517.3 544 1482 543C1446.7 542 1411.3 542 1376.2 543C1341 544 1306 546 1270.8 548C1235.7 550 1200.3 552 1165 548C1129.7 544 1094.3 534 1059 531C1023.7 528 988.3 532 953 535C917.7 538 882.3 540 847 539C811.7 538 776.3 534 741 536C705.7 538 670.3 546 635 548C599.7 550 564.3 546 529.2 544C494 542 459 542 423.8 545C388.7 548 353.3 554 318 554C282.7 554 247.3 548 212 545C176.7 542 141.3 542 106 538C70.7 534 35.3 526 17.7 522L0 518Z" fill="#6a13aa"></path></svg>