<svg xmlns="http://www.w3.org/2000/svg" version="1.1" xmlns:xlink="http://www.w3.org/1999/xlink" xmlns:svgjs="http://svgjs.dev/svgjs" width="1440" height="600" preserveAspectRatio="none" viewBox="0 0 1440 600"><g mask="url(&quot;#SvgjsMask1106&quot;)" fill="none"><rect width="1440" height="600" x="0" y="0" fill="rgba(145, 0, 213, 1)"></rect><path d="M0,537.019C101.68,532.756,196.989,494.749,283.156,440.6C369.998,386.027,445.662,315.988,494.899,226.013C546.612,131.512,573.933,25.799,569.036,-81.815C563.806,-196.754,539.588,-315.351,466.232,-403.992C392.177,-493.477,281.251,-548.36,166.755,-567.917C58.877,-586.343,-46.126,-545.084,-149.504,-509.165C-248.188,-474.877,-344.133,-435.736,-420.096,-364.016C-501.729,-286.943,-584.11,-197.38,-597.766,-85.946C-611.347,24.878,-545.502,126.667,-492.255,224.805C-442.218,317.026,-387.439,408.804,-298.837,465C-210.52,521.015,-104.491,541.4,0,537.019" fill="#7800b1"></path><path d="M1440 1099.758C1532.599 1093.632 1574.45 979.989 1647.0819999999999 922.226 1710.365 871.898 1808.579 857.1410000000001 1839.1770000000001 782.298 1869.731 707.562 1806.806 628.694 1799.9769999999999 548.243 1792.554 460.79499999999996 1851.393 359.499 1797.413 290.3 1743.874 221.66699999999997 1634.499 245.82799999999997 1549.485 227.13 1471.332 209.94099999999997 1397.85 178.17899999999997 1318.11 184.88 1225.29 192.68 1128.816 208.673 1057.406 268.48 980.794 332.644 913.507 424.28999999999996 912.935 524.22 912.372 622.507 997.76 695.794 1054.498 776.053 1101.04 841.89 1152.781 898.995 1214.527 950.8430000000001 1284.93 1009.96 1348.269 1105.827 1440 1099.758" fill="#aa00f9"></path></g><defs><mask id="SvgjsMask1106"><rect width="1440" height="600" fill="#ffffff"></rect></mask></defs></svg>