<svg xmlns="http://www.w3.org/2000/svg" version="1.1" xmlns:xlink="http://www.w3.org/1999/xlink" xmlns:svgjs="http://svgjs.dev/svgjs" width="1440" height="560" preserveAspectRatio="none" viewBox="0 0 1440 560"><g mask="url(&quot;#SvgjsMask1090&quot;)" fill="none"><rect width="1440" height="560" x="0" y="0" fill="rgba(106, 19, 170, 1)"></rect><path d="M -845.7871070720864,234 C -749.79,247.6 -557.79,319 -365.78710707208637,302 C -173.79,285 -77.79,133.4 114.21289292791363,149 C 306.21,164.6 402.21,377 594.2128929279136,380 C 786.21,383 905.06,166.8 1074.2128929279136,164 C 1243.37,161.2 1366.84,325.6 1440,366" stroke="rgba(255, 255, 255, 1)" stroke-width="2"></path><path d="M -513.9602489019919,366 C -417.96,347.8 -225.96,266.6 -33.96024890199197,275 C 158.04,283.4 254.04,429.2 446.039751098008,408 C 638.04,386.8 734.04,178.6 926.0397510980081,169 C 1118.04,159.4 1303.25,340.8 1406.039751098008,360 C 1508.83,379.2 1433.21,284 1440,265" stroke="rgba(255, 255, 255, 1)" stroke-width="2"></path><path d="M -436.90254887789473,233 C -340.9,266.8 -148.9,394.6 43.09745112210525,402 C 235.1,409.4 331.1,268 523.0974511221052,270 C 715.1,272 811.1,435.4 1003.0974511221052,412 C 1195.1,388.6 1395.72,169.6 1483.0974511221052,153 C 1570.48,136.4 1448.62,293.8 1440,329" stroke="rgba(255, 255, 255, 1)" stroke-width="2"></path><path d="M -381.07091081092426,239 C -285.07,248.4 -93.07,282.2 98.92908918907577,286 C 290.93,289.8 386.93,259 578.9290891890757,258 C 770.93,257 866.93,293.8 1058.9290891890757,281 C 1250.93,268.2 1462.71,183.8 1538.9290891890757,194 C 1615.14,204.2 1459.79,304.4 1440,332" stroke="rgba(255, 255, 255, 1)" stroke-width="2"></path><path d="M -772.4895314700007,189 C -676.49,212.6 -484.49,292.4 -292.48953147000066,307 C -100.49,321.6 -4.49,241.6 187.51046852999934,262 C 379.51,282.4 475.51,409 667.5104685299993,409 C 859.51,409 993.01,277.8 1147.5104685299993,262 C 1302.01,246.2 1381.5,316.4 1440,330" stroke="rgba(255, 255, 255, 1)" stroke-width="2"></path><path d="M -392.89450058482345,156 C -296.89,188.8 -104.89,309.6 87.10549941517655,320 C 279.11,330.4 375.11,215 567.1054994151766,208 C 759.11,201 855.11,279.4 1047.1054994151766,285 C 1239.11,290.6 1448.53,223.6 1527.1054994151766,236 C 1605.68,248.4 1457.42,324.8 1440,347" stroke="rgba(255, 255, 255, 1)" stroke-width="2"></path><path d="M -107.0765911269097,164 C -11.08,189.8 180.92,289.2 372.9234088730903,293 C 564.92,296.8 660.92,175.8 852.9234088730902,183 C 1044.92,190.2 1140.92,318.8 1332.9234088730902,329 C 1524.92,339.2 1791.51,241.2 1812.9234088730902,234 C 1834.34,226.8 1514.58,281.2 1440,293" stroke="rgba(255, 255, 255, 1)" stroke-width="2"></path></g><defs><mask id="SvgjsMask1090"><rect width="1440" height="560" fill="#ffffff"></rect></mask></defs></svg>